<svg width="1177" height="820" viewBox="0 0 1177 820" fill="none" xmlns="http://www.w3.org/2000/svg">
<path d="M103.942 176.155V227H77.187V88.3672H124.604C132.158 88.3672 138.981 89.478 145.075 91.6997C151.169 93.8579 156.342 96.9048 160.595 100.84C164.912 104.712 168.212 109.378 170.498 114.837C172.846 120.296 174.021 126.358 174.021 133.023C174.021 139.244 172.846 144.988 170.498 150.257C168.212 155.525 164.912 160.096 160.595 163.968C156.342 167.776 151.169 170.76 145.075 172.918C138.981 175.076 132.158 176.155 124.604 176.155H103.942ZM103.942 154.446H124.604C128.413 154.446 131.713 153.875 134.506 152.732C137.299 151.59 139.616 150.035 141.457 148.067C143.361 146.099 144.758 143.846 145.646 141.307C146.599 138.704 147.075 136.006 147.075 133.213C147.075 129.976 146.599 126.961 145.646 124.168C144.758 121.375 143.361 118.931 141.457 116.836C139.616 114.742 137.299 113.091 134.506 111.885C131.713 110.679 128.413 110.076 124.604 110.076H103.942V154.446ZM284.089 227H257.619V166.919H218.391V227H191.826V88.3672H218.391V145.21H257.619V88.3672H284.089V227ZM406.44 167.872C406.44 176.758 405.266 184.947 402.917 192.437C400.568 199.927 397.172 206.37 392.729 211.766C388.286 217.161 382.858 221.382 376.447 224.429C370.1 227.413 362.927 228.904 354.929 228.904C346.931 228.904 339.821 227.413 333.601 224.429C327.38 221.382 322.143 217.161 317.89 211.766C313.637 206.307 310.4 199.864 308.178 192.437C305.957 184.947 304.846 176.758 304.846 167.872V147.686C304.846 138.799 305.957 130.611 308.178 123.121C310.4 115.63 313.637 109.188 317.89 103.792C322.143 98.333 327.348 94.0801 333.505 91.0332C339.726 87.9863 346.835 86.4629 354.833 86.4629C362.895 86.4629 370.1 87.9863 376.447 91.0332C382.858 94.0801 388.286 98.333 392.729 103.792C397.172 109.188 400.568 115.63 402.917 123.121C405.266 130.611 406.44 138.799 406.44 147.686V167.872ZM379.304 147.496C379.304 141.846 378.828 136.641 377.875 131.88C376.987 127.12 375.559 123.025 373.591 119.598C371.623 116.17 369.084 113.504 365.974 111.6C362.927 109.632 359.213 108.648 354.833 108.648C350.517 108.648 346.899 109.632 343.979 111.6C341.059 113.504 338.71 116.17 336.933 119.598C335.156 123.025 333.886 127.12 333.125 131.88C332.363 136.641 331.982 141.846 331.982 147.496V167.872C331.982 173.458 332.363 178.631 333.125 183.392C333.886 188.152 335.156 192.278 336.933 195.77C338.71 199.261 341.059 201.99 343.979 203.958C346.899 205.926 350.549 206.91 354.929 206.91C359.245 206.91 362.927 205.926 365.974 203.958C369.084 201.99 371.591 199.292 373.496 195.865C375.463 192.374 376.923 188.248 377.875 183.487C378.828 178.726 379.304 173.521 379.304 167.872V147.496ZM518.222 227H491.562L453 137.593V227H426.054V88.3672H453L491.276 177.393L491.372 88.3672H518.222V227ZM585.253 170.062L570.59 186.153V227H543.74V88.3672H570.59V151.875L583.159 134.927L616.865 88.3672H649.619L602.963 149.686L651.333 227H619.531L585.253 170.062Z" fill="white"/>
<path d="M87.2266 271.766C87.2266 271.373 87.1357 271.042 86.9541 270.772C86.7783 270.503 86.5498 270.277 86.2686 270.096C85.9873 269.908 85.6768 269.753 85.3369 269.63C85.0029 269.507 84.6807 269.396 84.3701 269.296C83.9189 269.149 83.459 268.974 82.9902 268.769C82.5273 268.563 82.1025 268.312 81.7158 268.013C81.335 267.714 81.0215 267.362 80.7754 266.958C80.5352 266.548 80.415 266.067 80.415 265.517C80.415 264.966 80.5352 264.474 80.7754 264.04C81.0215 263.606 81.3408 263.24 81.7334 262.941C82.126 262.643 82.5713 262.417 83.0693 262.265C83.5674 262.106 84.0684 262.027 84.5723 262.027C85.1289 262.027 85.665 262.121 86.1807 262.309C86.6963 262.49 87.1533 262.748 87.5518 263.082C87.9502 263.416 88.2695 263.82 88.5098 264.295C88.75 264.77 88.876 265.3 88.8877 265.886H87.2178C87.1709 265.517 87.0801 265.183 86.9453 264.884C86.8105 264.579 86.6318 264.318 86.4092 264.102C86.1865 263.885 85.9199 263.718 85.6094 263.601C85.3047 263.478 84.959 263.416 84.5723 263.416C84.2617 263.416 83.957 263.46 83.6582 263.548C83.3652 263.636 83.1016 263.768 82.8672 263.943C82.6387 264.119 82.4541 264.336 82.3135 264.594C82.1787 264.852 82.1113 265.15 82.1113 265.49C82.1172 265.859 82.2109 266.173 82.3926 266.431C82.5742 266.683 82.8027 266.896 83.0781 267.072C83.3594 267.248 83.6611 267.395 83.9834 267.512C84.3115 267.629 84.6191 267.731 84.9062 267.819C85.2227 267.919 85.542 268.033 85.8643 268.162C86.1865 268.285 86.4971 268.429 86.7959 268.593C87.0947 268.757 87.373 268.941 87.6309 269.146C87.8887 269.352 88.1143 269.586 88.3076 269.85C88.501 270.107 88.6504 270.395 88.7559 270.711C88.8672 271.021 88.9229 271.367 88.9229 271.748C88.9229 272.322 88.7939 272.823 88.5361 273.251C88.2842 273.679 87.9561 274.036 87.5518 274.323C87.1475 274.604 86.6904 274.818 86.1807 274.965C85.6709 275.105 85.1611 275.176 84.6514 275.176C84.083 275.176 83.5264 275.088 82.9814 274.912C82.4365 274.736 81.9473 274.484 81.5137 274.156C81.0859 273.822 80.7373 273.418 80.4678 272.943C80.1982 272.463 80.0547 271.918 80.0371 271.309H81.6982C81.751 271.707 81.8594 272.062 82.0234 272.372C82.1875 272.677 82.3984 272.938 82.6562 273.154C82.9141 273.365 83.21 273.526 83.5439 273.638C83.8838 273.743 84.2529 273.796 84.6514 273.796C84.9678 273.796 85.2783 273.758 85.583 273.682C85.8936 273.6 86.1689 273.477 86.4092 273.312C86.6494 273.143 86.8457 272.932 86.998 272.68C87.1504 272.422 87.2266 272.117 87.2266 271.766ZM95.541 275.176C94.873 275.176 94.2578 275.062 93.6953 274.833C93.1387 274.604 92.6611 274.285 92.2627 273.875C91.8643 273.465 91.5537 272.979 91.3311 272.416C91.1084 271.854 90.9971 271.241 90.9971 270.579V270.21C90.9971 269.442 91.1201 268.757 91.3662 268.153C91.6123 267.544 91.9375 267.031 92.3418 266.615C92.752 266.193 93.2148 265.871 93.7305 265.648C94.252 265.426 94.7852 265.314 95.3301 265.314C96.0156 265.314 96.6133 265.435 97.123 265.675C97.6387 265.909 98.0664 266.237 98.4062 266.659C98.7461 267.075 98.998 267.567 99.1621 268.136C99.332 268.704 99.417 269.319 99.417 269.981V270.711H92.623C92.6406 271.145 92.7227 271.552 92.8691 271.933C93.0215 272.313 93.2266 272.647 93.4844 272.935C93.748 273.216 94.0615 273.438 94.4248 273.603C94.7881 273.767 95.1895 273.849 95.6289 273.849C96.209 273.849 96.7246 273.731 97.1758 273.497C97.627 273.263 98.002 272.952 98.3008 272.565L99.2939 273.339C99.1357 273.579 98.9365 273.811 98.6963 274.033C98.4619 274.25 98.1895 274.443 97.8789 274.613C97.5684 274.783 97.2168 274.918 96.8242 275.018C96.4316 275.123 96.0039 275.176 95.541 275.176ZM95.3301 266.65C95.002 266.65 94.6914 266.712 94.3984 266.835C94.1055 266.952 93.8418 267.128 93.6074 267.362C93.373 267.591 93.1738 267.875 93.0098 268.215C92.8516 268.549 92.7402 268.936 92.6758 269.375H97.791V269.252C97.7734 268.936 97.7119 268.622 97.6064 268.312C97.5068 268.001 97.3574 267.723 97.1582 267.477C96.959 267.23 96.707 267.031 96.4023 266.879C96.1035 266.727 95.7461 266.65 95.3301 266.65ZM102.405 261.5H107.266V273.594H110.368V275H102.405V273.594H105.64V262.915H102.405V261.5ZM115.387 275V266.747H112.768V265.49H115.387V264.822C115.387 264.213 115.475 263.68 115.65 263.223C115.832 262.76 116.084 262.373 116.406 262.062C116.734 261.752 117.127 261.518 117.584 261.359C118.041 261.201 118.551 261.122 119.113 261.122C119.5 261.122 119.875 261.154 120.238 261.219C120.607 261.283 120.985 261.365 121.372 261.465L121.179 262.81C120.938 262.728 120.657 262.657 120.335 262.599C120.019 262.534 119.679 262.502 119.315 262.502C118.554 262.508 117.979 262.701 117.593 263.082C117.212 263.463 117.021 264.043 117.021 264.822V265.49H120.687V266.747H117.021V275H115.387ZM130.882 270.069H124.158V268.733H130.882V270.069ZM138.634 273.857C138.927 273.857 139.211 273.811 139.486 273.717C139.768 273.623 140.017 273.494 140.233 273.33C140.45 273.16 140.623 272.964 140.752 272.741C140.887 272.513 140.957 272.267 140.963 272.003H142.501C142.495 272.425 142.384 272.829 142.167 273.216C141.956 273.597 141.672 273.934 141.314 274.227C140.957 274.514 140.547 274.745 140.084 274.921C139.621 275.091 139.138 275.176 138.634 275.176C137.913 275.176 137.283 275.047 136.744 274.789C136.205 274.531 135.754 274.186 135.391 273.752C135.033 273.312 134.764 272.809 134.582 272.24C134.4 271.666 134.31 271.062 134.31 270.43V270.061C134.31 269.434 134.4 268.833 134.582 268.259C134.764 267.685 135.033 267.181 135.391 266.747C135.754 266.308 136.205 265.959 136.744 265.701C137.283 265.443 137.913 265.314 138.634 265.314C139.196 265.314 139.712 265.405 140.181 265.587C140.655 265.763 141.062 266.006 141.402 266.316C141.748 266.621 142.018 266.984 142.211 267.406C142.404 267.828 142.501 268.279 142.501 268.76H140.963C140.957 268.473 140.893 268.203 140.77 267.951C140.652 267.693 140.491 267.468 140.286 267.274C140.081 267.081 139.835 266.929 139.548 266.817C139.267 266.706 138.962 266.65 138.634 266.65C138.13 266.65 137.705 266.753 137.359 266.958C137.02 267.157 136.744 267.421 136.533 267.749C136.322 268.071 136.17 268.435 136.076 268.839C135.988 269.243 135.944 269.65 135.944 270.061V270.43C135.944 270.846 135.988 271.259 136.076 271.669C136.17 272.073 136.319 272.439 136.524 272.768C136.735 273.09 137.011 273.354 137.351 273.559C137.696 273.758 138.124 273.857 138.634 273.857ZM144.936 270.157C144.936 269.472 145.035 268.836 145.234 268.25C145.434 267.658 145.718 267.146 146.087 266.712C146.462 266.278 146.916 265.938 147.449 265.692C147.982 265.44 148.583 265.314 149.251 265.314C149.925 265.314 150.528 265.44 151.062 265.692C151.601 265.938 152.055 266.278 152.424 266.712C152.799 267.146 153.086 267.658 153.285 268.25C153.484 268.836 153.584 269.472 153.584 270.157V270.351C153.584 271.036 153.484 271.672 153.285 272.258C153.086 272.844 152.799 273.354 152.424 273.787C152.055 274.221 151.604 274.561 151.07 274.807C150.537 275.053 149.937 275.176 149.269 275.176C148.595 275.176 147.988 275.053 147.449 274.807C146.916 274.561 146.462 274.221 146.087 273.787C145.718 273.354 145.434 272.844 145.234 272.258C145.035 271.672 144.936 271.036 144.936 270.351V270.157ZM146.562 270.351C146.562 270.819 146.617 271.268 146.729 271.695C146.84 272.117 147.007 272.489 147.229 272.812C147.458 273.134 147.742 273.389 148.082 273.576C148.422 273.764 148.817 273.857 149.269 273.857C149.714 273.857 150.104 273.764 150.438 273.576C150.777 273.389 151.059 273.134 151.281 272.812C151.51 272.489 151.68 272.117 151.791 271.695C151.902 271.268 151.958 270.819 151.958 270.351V270.157C151.958 269.694 151.899 269.252 151.782 268.83C151.671 268.402 151.501 268.027 151.272 267.705C151.05 267.383 150.769 267.128 150.429 266.94C150.095 266.747 149.702 266.65 149.251 266.65C148.8 266.65 148.407 266.747 148.073 266.94C147.739 267.128 147.458 267.383 147.229 267.705C147.007 268.027 146.84 268.402 146.729 268.83C146.617 269.252 146.562 269.694 146.562 270.157V270.351ZM157.662 265.49L157.776 266.896C158.122 266.404 158.547 266.021 159.051 265.745C159.555 265.464 160.117 265.32 160.738 265.314C161.236 265.314 161.688 265.385 162.092 265.525C162.502 265.666 162.851 265.886 163.138 266.185C163.425 266.483 163.645 266.864 163.797 267.327C163.955 267.784 164.034 268.329 164.034 268.962V275H162.408V268.997C162.408 268.575 162.361 268.218 162.268 267.925C162.174 267.632 162.033 267.395 161.846 267.213C161.664 267.031 161.438 266.899 161.169 266.817C160.905 266.735 160.601 266.694 160.255 266.694C159.71 266.694 159.229 266.832 158.813 267.107C158.403 267.377 158.075 267.734 157.829 268.18V275H156.203V265.49H157.662ZM170.863 263.188V265.49H174.484V266.747H170.863V271.915C170.863 272.284 170.91 272.589 171.004 272.829C171.098 273.069 171.227 273.263 171.391 273.409C171.555 273.55 171.742 273.649 171.953 273.708C172.17 273.767 172.398 273.796 172.639 273.796C172.814 273.796 172.996 273.787 173.184 273.77C173.371 273.746 173.553 273.72 173.729 273.69C173.91 273.661 174.077 273.632 174.229 273.603C174.388 273.567 174.517 273.538 174.616 273.515L174.845 274.666C174.71 274.748 174.546 274.821 174.353 274.886C174.159 274.944 173.948 274.994 173.72 275.035C173.491 275.082 173.248 275.117 172.99 275.141C172.738 275.164 172.486 275.176 172.234 275.176C171.812 275.176 171.417 275.117 171.048 275C170.685 274.877 170.368 274.687 170.099 274.429C169.829 274.165 169.615 273.828 169.457 273.418C169.305 273.002 169.229 272.501 169.229 271.915V266.747H166.732V265.49H169.229V263.188H170.863ZM184.073 275C184.009 274.877 183.956 274.725 183.915 274.543C183.88 274.355 183.854 274.162 183.836 273.963C183.672 274.127 183.487 274.282 183.282 274.429C183.083 274.575 182.86 274.704 182.614 274.815C182.374 274.927 182.116 275.015 181.841 275.079C181.565 275.144 181.272 275.176 180.962 275.176C180.458 275.176 180.001 275.103 179.591 274.956C179.187 274.81 178.841 274.613 178.554 274.367C178.272 274.115 178.053 273.819 177.895 273.479C177.742 273.134 177.666 272.762 177.666 272.363C177.666 271.842 177.769 271.385 177.974 270.992C178.185 270.6 178.48 270.274 178.861 270.017C179.242 269.753 179.699 269.557 180.232 269.428C180.771 269.299 181.372 269.234 182.034 269.234H183.81V268.487C183.81 268.2 183.757 267.942 183.651 267.714C183.546 267.485 183.396 267.292 183.203 267.134C183.01 266.97 182.772 266.844 182.491 266.756C182.216 266.668 181.905 266.624 181.56 266.624C181.237 266.624 180.947 266.665 180.689 266.747C180.438 266.829 180.224 266.938 180.048 267.072C179.872 267.207 179.734 267.368 179.635 267.556C179.541 267.737 179.494 267.928 179.494 268.127H177.859C177.865 267.781 177.953 267.441 178.123 267.107C178.299 266.773 178.548 266.475 178.87 266.211C179.198 265.941 179.594 265.725 180.057 265.561C180.525 265.396 181.056 265.314 181.647 265.314C182.187 265.314 182.688 265.382 183.15 265.517C183.613 265.646 184.012 265.845 184.346 266.114C184.686 266.378 184.952 266.709 185.146 267.107C185.339 267.506 185.436 267.972 185.436 268.505V272.926C185.436 273.242 185.465 273.579 185.523 273.937C185.582 274.288 185.664 274.596 185.77 274.859V275H184.073ZM181.199 273.761C181.516 273.761 181.812 273.72 182.087 273.638C182.362 273.556 182.611 273.447 182.834 273.312C183.062 273.178 183.259 273.025 183.423 272.855C183.587 272.68 183.716 272.498 183.81 272.311V270.386H182.298C181.349 270.386 180.61 270.526 180.083 270.808C179.556 271.089 179.292 271.531 179.292 272.135C179.292 272.369 179.33 272.586 179.406 272.785C179.488 272.984 179.608 273.157 179.767 273.304C179.925 273.444 180.124 273.556 180.364 273.638C180.604 273.72 180.883 273.761 181.199 273.761ZM188.89 265.49H193.75V273.594H196.853V275H188.89V273.594H192.124V266.905H188.89V265.49ZM191.913 262.994C191.913 262.725 191.992 262.499 192.15 262.317C192.314 262.13 192.561 262.036 192.889 262.036C193.211 262.036 193.454 262.13 193.618 262.317C193.782 262.499 193.864 262.725 193.864 262.994C193.864 263.258 193.782 263.478 193.618 263.653C193.454 263.829 193.211 263.917 192.889 263.917C192.561 263.917 192.314 263.829 192.15 263.653C191.992 263.478 191.913 263.258 191.913 262.994ZM200.904 265.49L201.019 266.896C201.364 266.404 201.789 266.021 202.293 265.745C202.797 265.464 203.359 265.32 203.98 265.314C204.479 265.314 204.93 265.385 205.334 265.525C205.744 265.666 206.093 265.886 206.38 266.185C206.667 266.483 206.887 266.864 207.039 267.327C207.197 267.784 207.276 268.329 207.276 268.962V275H205.65V268.997C205.65 268.575 205.604 268.218 205.51 267.925C205.416 267.632 205.275 267.395 205.088 267.213C204.906 267.031 204.681 266.899 204.411 266.817C204.147 266.735 203.843 266.694 203.497 266.694C202.952 266.694 202.472 266.832 202.056 267.107C201.646 267.377 201.317 267.734 201.071 268.18V275H199.445V265.49H200.904ZM214.457 275.176C213.789 275.176 213.174 275.062 212.611 274.833C212.055 274.604 211.577 274.285 211.179 273.875C210.78 273.465 210.47 272.979 210.247 272.416C210.024 271.854 209.913 271.241 209.913 270.579V270.21C209.913 269.442 210.036 268.757 210.282 268.153C210.528 267.544 210.854 267.031 211.258 266.615C211.668 266.193 212.131 265.871 212.646 265.648C213.168 265.426 213.701 265.314 214.246 265.314C214.932 265.314 215.529 265.435 216.039 265.675C216.555 265.909 216.982 266.237 217.322 266.659C217.662 267.075 217.914 267.567 218.078 268.136C218.248 268.704 218.333 269.319 218.333 269.981V270.711H211.539C211.557 271.145 211.639 271.552 211.785 271.933C211.938 272.313 212.143 272.647 212.4 272.935C212.664 273.216 212.978 273.438 213.341 273.603C213.704 273.767 214.105 273.849 214.545 273.849C215.125 273.849 215.641 273.731 216.092 273.497C216.543 273.263 216.918 272.952 217.217 272.565L218.21 273.339C218.052 273.579 217.853 273.811 217.612 274.033C217.378 274.25 217.105 274.443 216.795 274.613C216.484 274.783 216.133 274.918 215.74 275.018C215.348 275.123 214.92 275.176 214.457 275.176ZM214.246 266.65C213.918 266.65 213.607 266.712 213.314 266.835C213.021 266.952 212.758 267.128 212.523 267.362C212.289 267.591 212.09 267.875 211.926 268.215C211.768 268.549 211.656 268.936 211.592 269.375H216.707V269.252C216.689 268.936 216.628 268.622 216.522 268.312C216.423 268.001 216.273 267.723 216.074 267.477C215.875 267.23 215.623 267.031 215.318 266.879C215.02 266.727 214.662 266.65 214.246 266.65ZM220.759 270.166C220.759 269.457 220.847 268.807 221.022 268.215C221.204 267.617 221.459 267.104 221.787 266.677C222.121 266.249 222.522 265.915 222.991 265.675C223.46 265.435 223.984 265.314 224.564 265.314C225.133 265.314 225.628 265.411 226.05 265.604C226.478 265.792 226.847 266.067 227.157 266.431V261.5H228.783V275H227.289L227.219 273.998C226.902 274.385 226.524 274.678 226.085 274.877C225.646 275.076 225.133 275.176 224.547 275.176C223.973 275.176 223.451 275.053 222.982 274.807C222.52 274.561 222.124 274.221 221.796 273.787C221.468 273.354 221.213 272.844 221.031 272.258C220.85 271.666 220.759 271.03 220.759 270.351V270.166ZM222.385 270.351C222.385 270.813 222.435 271.253 222.534 271.669C222.634 272.085 222.786 272.451 222.991 272.768C223.202 273.084 223.469 273.336 223.791 273.523C224.113 273.705 224.5 273.796 224.951 273.796C225.227 273.796 225.476 273.764 225.698 273.699C225.921 273.635 226.123 273.544 226.305 273.427C226.486 273.304 226.647 273.16 226.788 272.996C226.929 272.826 227.052 272.639 227.157 272.434V268.021C226.946 267.635 226.662 267.318 226.305 267.072C225.947 266.82 225.502 266.694 224.969 266.694C224.512 266.694 224.119 266.788 223.791 266.976C223.469 267.163 223.202 267.418 222.991 267.74C222.786 268.057 222.634 268.426 222.534 268.848C222.435 269.264 222.385 269.703 222.385 270.166V270.351ZM246.739 273.857C247.032 273.857 247.316 273.811 247.592 273.717C247.873 273.623 248.122 273.494 248.339 273.33C248.556 273.16 248.729 272.964 248.857 272.741C248.992 272.513 249.062 272.267 249.068 272.003H250.606C250.601 272.425 250.489 272.829 250.272 273.216C250.062 273.597 249.777 273.934 249.42 274.227C249.062 274.514 248.652 274.745 248.189 274.921C247.727 275.091 247.243 275.176 246.739 275.176C246.019 275.176 245.389 275.047 244.85 274.789C244.311 274.531 243.859 274.186 243.496 273.752C243.139 273.312 242.869 272.809 242.688 272.24C242.506 271.666 242.415 271.062 242.415 270.43V270.061C242.415 269.434 242.506 268.833 242.688 268.259C242.869 267.685 243.139 267.181 243.496 266.747C243.859 266.308 244.311 265.959 244.85 265.701C245.389 265.443 246.019 265.314 246.739 265.314C247.302 265.314 247.817 265.405 248.286 265.587C248.761 265.763 249.168 266.006 249.508 266.316C249.854 266.621 250.123 266.984 250.316 267.406C250.51 267.828 250.606 268.279 250.606 268.76H249.068C249.062 268.473 248.998 268.203 248.875 267.951C248.758 267.693 248.597 267.468 248.392 267.274C248.187 267.081 247.94 266.929 247.653 266.817C247.372 266.706 247.067 266.65 246.739 266.65C246.235 266.65 245.811 266.753 245.465 266.958C245.125 267.157 244.85 267.421 244.639 267.749C244.428 268.071 244.275 268.435 244.182 268.839C244.094 269.243 244.05 269.65 244.05 270.061V270.43C244.05 270.846 244.094 271.259 244.182 271.669C244.275 272.073 244.425 272.439 244.63 272.768C244.841 273.09 245.116 273.354 245.456 273.559C245.802 273.758 246.229 273.857 246.739 273.857ZM259.729 265.314C259.882 265.314 260.04 265.32 260.204 265.332C260.368 265.338 260.523 265.353 260.67 265.376C260.822 265.394 260.96 265.417 261.083 265.446C261.212 265.476 261.317 265.508 261.399 265.543L261.18 267.134C260.863 267.063 260.562 267.014 260.274 266.984C259.993 266.949 259.697 266.932 259.387 266.932C258.625 266.932 258.007 267.104 257.532 267.45C257.063 267.796 256.718 268.279 256.495 268.9V275H254.86V265.49H256.407L256.486 267.002C256.873 266.48 257.336 266.07 257.875 265.771C258.42 265.467 259.038 265.314 259.729 265.314ZM268.51 275.176C267.842 275.176 267.227 275.062 266.664 274.833C266.107 274.604 265.63 274.285 265.231 273.875C264.833 273.465 264.522 272.979 264.3 272.416C264.077 271.854 263.966 271.241 263.966 270.579V270.21C263.966 269.442 264.089 268.757 264.335 268.153C264.581 267.544 264.906 267.031 265.311 266.615C265.721 266.193 266.184 265.871 266.699 265.648C267.221 265.426 267.754 265.314 268.299 265.314C268.984 265.314 269.582 265.435 270.092 265.675C270.607 265.909 271.035 266.237 271.375 266.659C271.715 267.075 271.967 267.567 272.131 268.136C272.301 268.704 272.386 269.319 272.386 269.981V270.711H265.592C265.609 271.145 265.691 271.552 265.838 271.933C265.99 272.313 266.195 272.647 266.453 272.935C266.717 273.216 267.03 273.438 267.394 273.603C267.757 273.767 268.158 273.849 268.598 273.849C269.178 273.849 269.693 273.731 270.145 273.497C270.596 273.263 270.971 272.952 271.27 272.565L272.263 273.339C272.104 273.579 271.905 273.811 271.665 274.033C271.431 274.25 271.158 274.443 270.848 274.613C270.537 274.783 270.186 274.918 269.793 275.018C269.4 275.123 268.973 275.176 268.51 275.176ZM268.299 266.65C267.971 266.65 267.66 266.712 267.367 266.835C267.074 266.952 266.811 267.128 266.576 267.362C266.342 267.591 266.143 267.875 265.979 268.215C265.82 268.549 265.709 268.936 265.645 269.375H270.76V269.252C270.742 268.936 270.681 268.622 270.575 268.312C270.476 268.001 270.326 267.723 270.127 267.477C269.928 267.23 269.676 267.031 269.371 266.879C269.072 266.727 268.715 266.65 268.299 266.65ZM281.368 275C281.304 274.877 281.251 274.725 281.21 274.543C281.175 274.355 281.148 274.162 281.131 273.963C280.967 274.127 280.782 274.282 280.577 274.429C280.378 274.575 280.155 274.704 279.909 274.815C279.669 274.927 279.411 275.015 279.136 275.079C278.86 275.144 278.567 275.176 278.257 275.176C277.753 275.176 277.296 275.103 276.886 274.956C276.481 274.81 276.136 274.613 275.849 274.367C275.567 274.115 275.348 273.819 275.189 273.479C275.037 273.134 274.961 272.762 274.961 272.363C274.961 271.842 275.063 271.385 275.269 270.992C275.479 270.6 275.775 270.274 276.156 270.017C276.537 269.753 276.994 269.557 277.527 269.428C278.066 269.299 278.667 269.234 279.329 269.234H281.104V268.487C281.104 268.2 281.052 267.942 280.946 267.714C280.841 267.485 280.691 267.292 280.498 267.134C280.305 266.97 280.067 266.844 279.786 266.756C279.511 266.668 279.2 266.624 278.854 266.624C278.532 266.624 278.242 266.665 277.984 266.747C277.732 266.829 277.519 266.938 277.343 267.072C277.167 267.207 277.029 267.368 276.93 267.556C276.836 267.737 276.789 267.928 276.789 268.127H275.154C275.16 267.781 275.248 267.441 275.418 267.107C275.594 266.773 275.843 266.475 276.165 266.211C276.493 265.941 276.889 265.725 277.352 265.561C277.82 265.396 278.351 265.314 278.942 265.314C279.481 265.314 279.982 265.382 280.445 265.517C280.908 265.646 281.307 265.845 281.641 266.114C281.98 266.378 282.247 266.709 282.44 267.107C282.634 267.506 282.73 267.972 282.73 268.505V272.926C282.73 273.242 282.76 273.579 282.818 273.937C282.877 274.288 282.959 274.596 283.064 274.859V275H281.368ZM278.494 273.761C278.811 273.761 279.106 273.72 279.382 273.638C279.657 273.556 279.906 273.447 280.129 273.312C280.357 273.178 280.554 273.025 280.718 272.855C280.882 272.68 281.011 272.498 281.104 272.311V270.386H279.593C278.644 270.386 277.905 270.526 277.378 270.808C276.851 271.089 276.587 271.531 276.587 272.135C276.587 272.369 276.625 272.586 276.701 272.785C276.783 272.984 276.903 273.157 277.062 273.304C277.22 273.444 277.419 273.556 277.659 273.638C277.899 273.72 278.178 273.761 278.494 273.761ZM289.779 263.188V265.49H293.4V266.747H289.779V271.915C289.779 272.284 289.826 272.589 289.92 272.829C290.014 273.069 290.143 273.263 290.307 273.409C290.471 273.55 290.658 273.649 290.869 273.708C291.086 273.767 291.314 273.796 291.555 273.796C291.73 273.796 291.912 273.787 292.1 273.77C292.287 273.746 292.469 273.72 292.645 273.69C292.826 273.661 292.993 273.632 293.146 273.603C293.304 273.567 293.433 273.538 293.532 273.515L293.761 274.666C293.626 274.748 293.462 274.821 293.269 274.886C293.075 274.944 292.864 274.994 292.636 275.035C292.407 275.082 292.164 275.117 291.906 275.141C291.654 275.164 291.402 275.176 291.15 275.176C290.729 275.176 290.333 275.117 289.964 275C289.601 274.877 289.284 274.687 289.015 274.429C288.745 274.165 288.531 273.828 288.373 273.418C288.221 273.002 288.145 272.501 288.145 271.915V266.747H285.648V265.49H288.145V263.188H289.779ZM296.995 265.49H301.855V273.594H304.958V275H296.995V273.594H300.229V266.905H296.995V265.49ZM300.019 262.994C300.019 262.725 300.098 262.499 300.256 262.317C300.42 262.13 300.666 262.036 300.994 262.036C301.316 262.036 301.56 262.13 301.724 262.317C301.888 262.499 301.97 262.725 301.97 262.994C301.97 263.258 301.888 263.478 301.724 263.653C301.56 263.829 301.316 263.917 300.994 263.917C300.666 263.917 300.42 263.829 300.256 263.653C300.098 263.478 300.019 263.258 300.019 262.994ZM311.277 272.662L311.427 273.251L311.585 272.662L314.248 265.49H315.909L312.033 275H310.794L306.883 265.49H308.553L311.277 272.662ZM322.562 275.176C321.895 275.176 321.279 275.062 320.717 274.833C320.16 274.604 319.683 274.285 319.284 273.875C318.886 273.465 318.575 272.979 318.353 272.416C318.13 271.854 318.019 271.241 318.019 270.579V270.21C318.019 269.442 318.142 268.757 318.388 268.153C318.634 267.544 318.959 267.031 319.363 266.615C319.773 266.193 320.236 265.871 320.752 265.648C321.273 265.426 321.807 265.314 322.352 265.314C323.037 265.314 323.635 265.435 324.145 265.675C324.66 265.909 325.088 266.237 325.428 266.659C325.768 267.075 326.02 267.567 326.184 268.136C326.354 268.704 326.438 269.319 326.438 269.981V270.711H319.645C319.662 271.145 319.744 271.552 319.891 271.933C320.043 272.313 320.248 272.647 320.506 272.935C320.77 273.216 321.083 273.438 321.446 273.603C321.81 273.767 322.211 273.849 322.65 273.849C323.23 273.849 323.746 273.731 324.197 273.497C324.648 273.263 325.023 272.952 325.322 272.565L326.315 273.339C326.157 273.579 325.958 273.811 325.718 274.033C325.483 274.25 325.211 274.443 324.9 274.613C324.59 274.783 324.238 274.918 323.846 275.018C323.453 275.123 323.025 275.176 322.562 275.176ZM322.352 266.65C322.023 266.65 321.713 266.712 321.42 266.835C321.127 266.952 320.863 267.128 320.629 267.362C320.395 267.591 320.195 267.875 320.031 268.215C319.873 268.549 319.762 268.936 319.697 269.375H324.812V269.252C324.795 268.936 324.733 268.622 324.628 268.312C324.528 268.001 324.379 267.723 324.18 267.477C323.98 267.23 323.729 267.031 323.424 266.879C323.125 266.727 322.768 266.65 322.352 266.65ZM344.034 273.857C344.327 273.857 344.611 273.811 344.887 273.717C345.168 273.623 345.417 273.494 345.634 273.33C345.851 273.16 346.023 272.964 346.152 272.741C346.287 272.513 346.357 272.267 346.363 272.003H347.901C347.896 272.425 347.784 272.829 347.567 273.216C347.356 273.597 347.072 273.934 346.715 274.227C346.357 274.514 345.947 274.745 345.484 274.921C345.021 275.091 344.538 275.176 344.034 275.176C343.313 275.176 342.684 275.047 342.145 274.789C341.605 274.531 341.154 274.186 340.791 273.752C340.434 273.312 340.164 272.809 339.982 272.24C339.801 271.666 339.71 271.062 339.71 270.43V270.061C339.71 269.434 339.801 268.833 339.982 268.259C340.164 267.685 340.434 267.181 340.791 266.747C341.154 266.308 341.605 265.959 342.145 265.701C342.684 265.443 343.313 265.314 344.034 265.314C344.597 265.314 345.112 265.405 345.581 265.587C346.056 265.763 346.463 266.006 346.803 266.316C347.148 266.621 347.418 266.984 347.611 267.406C347.805 267.828 347.901 268.279 347.901 268.76H346.363C346.357 268.473 346.293 268.203 346.17 267.951C346.053 267.693 345.892 267.468 345.687 267.274C345.481 267.081 345.235 266.929 344.948 266.817C344.667 266.706 344.362 266.65 344.034 266.65C343.53 266.65 343.105 266.753 342.76 266.958C342.42 267.157 342.145 267.421 341.934 267.749C341.723 268.071 341.57 268.435 341.477 268.839C341.389 269.243 341.345 269.65 341.345 270.061V270.43C341.345 270.846 341.389 271.259 341.477 271.669C341.57 272.073 341.72 272.439 341.925 272.768C342.136 273.09 342.411 273.354 342.751 273.559C343.097 273.758 343.524 273.857 344.034 273.857ZM350.336 270.157C350.336 269.472 350.436 268.836 350.635 268.25C350.834 267.658 351.118 267.146 351.487 266.712C351.862 266.278 352.316 265.938 352.85 265.692C353.383 265.44 353.983 265.314 354.651 265.314C355.325 265.314 355.929 265.44 356.462 265.692C357.001 265.938 357.455 266.278 357.824 266.712C358.199 267.146 358.486 267.658 358.686 268.25C358.885 268.836 358.984 269.472 358.984 270.157V270.351C358.984 271.036 358.885 271.672 358.686 272.258C358.486 272.844 358.199 273.354 357.824 273.787C357.455 274.221 357.004 274.561 356.471 274.807C355.938 275.053 355.337 275.176 354.669 275.176C353.995 275.176 353.389 275.053 352.85 274.807C352.316 274.561 351.862 274.221 351.487 273.787C351.118 273.354 350.834 272.844 350.635 272.258C350.436 271.672 350.336 271.036 350.336 270.351V270.157ZM351.962 270.351C351.962 270.819 352.018 271.268 352.129 271.695C352.24 272.117 352.407 272.489 352.63 272.812C352.858 273.134 353.143 273.389 353.482 273.576C353.822 273.764 354.218 273.857 354.669 273.857C355.114 273.857 355.504 273.764 355.838 273.576C356.178 273.389 356.459 273.134 356.682 272.812C356.91 272.489 357.08 272.117 357.191 271.695C357.303 271.268 357.358 270.819 357.358 270.351V270.157C357.358 269.694 357.3 269.252 357.183 268.83C357.071 268.402 356.901 268.027 356.673 267.705C356.45 267.383 356.169 267.128 355.829 266.94C355.495 266.747 355.103 266.65 354.651 266.65C354.2 266.65 353.808 266.747 353.474 266.94C353.14 267.128 352.858 267.383 352.63 267.705C352.407 268.027 352.24 268.402 352.129 268.83C352.018 269.252 351.962 269.694 351.962 270.157V270.351ZM361.296 270.166C361.296 269.457 361.384 268.807 361.56 268.215C361.741 267.617 361.996 267.104 362.324 266.677C362.658 266.249 363.06 265.915 363.528 265.675C363.997 265.435 364.521 265.314 365.102 265.314C365.67 265.314 366.165 265.411 366.587 265.604C367.015 265.792 367.384 266.067 367.694 266.431V261.5H369.32V275H367.826L367.756 273.998C367.439 274.385 367.062 274.678 366.622 274.877C366.183 275.076 365.67 275.176 365.084 275.176C364.51 275.176 363.988 275.053 363.52 274.807C363.057 274.561 362.661 274.221 362.333 273.787C362.005 273.354 361.75 272.844 361.568 272.258C361.387 271.666 361.296 271.03 361.296 270.351V270.166ZM362.922 270.351C362.922 270.813 362.972 271.253 363.071 271.669C363.171 272.085 363.323 272.451 363.528 272.768C363.739 273.084 364.006 273.336 364.328 273.523C364.65 273.705 365.037 273.796 365.488 273.796C365.764 273.796 366.013 273.764 366.235 273.699C366.458 273.635 366.66 273.544 366.842 273.427C367.023 273.304 367.185 273.16 367.325 272.996C367.466 272.826 367.589 272.639 367.694 272.434V268.021C367.483 267.635 367.199 267.318 366.842 267.072C366.484 266.82 366.039 266.694 365.506 266.694C365.049 266.694 364.656 266.788 364.328 266.976C364.006 267.163 363.739 267.418 363.528 267.74C363.323 268.057 363.171 268.426 363.071 268.848C362.972 269.264 362.922 269.703 362.922 270.166V270.351ZM372.669 265.49H377.529V273.594H380.632V275H372.669V273.594H375.903V266.905H372.669V265.49ZM375.692 262.994C375.692 262.725 375.771 262.499 375.93 262.317C376.094 262.13 376.34 262.036 376.668 262.036C376.99 262.036 377.233 262.13 377.397 262.317C377.562 262.499 377.644 262.725 377.644 262.994C377.644 263.258 377.562 263.478 377.397 263.653C377.233 263.829 376.99 263.917 376.668 263.917C376.34 263.917 376.094 263.829 375.93 263.653C375.771 263.478 375.692 263.258 375.692 262.994ZM384.684 265.49L384.798 266.896C385.144 266.404 385.568 266.021 386.072 265.745C386.576 265.464 387.139 265.32 387.76 265.314C388.258 265.314 388.709 265.385 389.113 265.525C389.523 265.666 389.872 265.886 390.159 266.185C390.446 266.483 390.666 266.864 390.818 267.327C390.977 267.784 391.056 268.329 391.056 268.962V275H389.43V268.997C389.43 268.575 389.383 268.218 389.289 267.925C389.195 267.632 389.055 267.395 388.867 267.213C388.686 267.031 388.46 266.899 388.19 266.817C387.927 266.735 387.622 266.694 387.276 266.694C386.731 266.694 386.251 266.832 385.835 267.107C385.425 267.377 385.097 267.734 384.851 268.18V275H383.225V265.49H384.684ZM393.736 270.166C393.736 269.457 393.821 268.807 393.991 268.215C394.167 267.617 394.419 267.104 394.747 266.677C395.075 266.249 395.474 265.915 395.942 265.675C396.411 265.435 396.941 265.314 397.533 265.314C398.119 265.314 398.632 265.42 399.071 265.631C399.517 265.836 399.895 266.135 400.205 266.527L400.284 265.49H401.761V274.798C401.761 275.425 401.661 275.981 401.462 276.468C401.269 276.954 400.993 277.367 400.636 277.707C400.284 278.047 399.862 278.305 399.37 278.48C398.878 278.656 398.333 278.744 397.735 278.744C397.489 278.744 397.208 278.715 396.892 278.656C396.575 278.604 396.253 278.513 395.925 278.384C395.603 278.261 395.289 278.094 394.984 277.883C394.686 277.672 394.428 277.411 394.211 277.101L395.055 276.125C395.254 276.365 395.459 276.567 395.67 276.731C395.881 276.901 396.095 277.036 396.312 277.136C396.528 277.235 396.745 277.306 396.962 277.347C397.179 277.394 397.396 277.417 397.612 277.417C397.999 277.417 398.348 277.361 398.658 277.25C398.969 277.139 399.232 276.975 399.449 276.758C399.672 276.547 399.842 276.283 399.959 275.967C400.076 275.65 400.135 275.287 400.135 274.877V274.06C399.818 274.423 399.443 274.701 399.01 274.895C398.582 275.082 398.084 275.176 397.516 275.176C396.936 275.176 396.411 275.053 395.942 274.807C395.474 274.561 395.075 274.221 394.747 273.787C394.425 273.354 394.176 272.844 394 272.258C393.824 271.666 393.736 271.03 393.736 270.351V270.166ZM395.362 270.351C395.362 270.813 395.409 271.253 395.503 271.669C395.603 272.085 395.755 272.451 395.96 272.768C396.171 273.084 396.438 273.336 396.76 273.523C397.082 273.705 397.469 273.796 397.92 273.796C398.201 273.796 398.453 273.764 398.676 273.699C398.904 273.629 399.106 273.532 399.282 273.409C399.464 273.286 399.625 273.14 399.766 272.97C399.906 272.8 400.029 272.612 400.135 272.407V268.048C400.029 267.849 399.906 267.667 399.766 267.503C399.625 267.339 399.464 267.198 399.282 267.081C399.101 266.958 398.898 266.864 398.676 266.8C398.453 266.729 398.207 266.694 397.938 266.694C397.48 266.694 397.088 266.788 396.76 266.976C396.438 267.163 396.171 267.418 395.96 267.74C395.755 268.057 395.603 268.426 395.503 268.848C395.409 269.264 395.362 269.703 395.362 270.166V270.351ZM419.506 263.188V265.49H423.127V266.747H419.506V271.915C419.506 272.284 419.553 272.589 419.646 272.829C419.74 273.069 419.869 273.263 420.033 273.409C420.197 273.55 420.385 273.649 420.596 273.708C420.812 273.767 421.041 273.796 421.281 273.796C421.457 273.796 421.639 273.787 421.826 273.77C422.014 273.746 422.195 273.72 422.371 273.69C422.553 273.661 422.72 273.632 422.872 273.603C423.03 273.567 423.159 273.538 423.259 273.515L423.487 274.666C423.353 274.748 423.188 274.821 422.995 274.886C422.802 274.944 422.591 274.994 422.362 275.035C422.134 275.082 421.891 275.117 421.633 275.141C421.381 275.164 421.129 275.176 420.877 275.176C420.455 275.176 420.06 275.117 419.69 275C419.327 274.877 419.011 274.687 418.741 274.429C418.472 274.165 418.258 273.828 418.1 273.418C417.947 273.002 417.871 272.501 417.871 271.915V266.747H415.375V265.49H417.871V263.188H419.506ZM426.01 270.157C426.01 269.472 426.109 268.836 426.309 268.25C426.508 267.658 426.792 267.146 427.161 266.712C427.536 266.278 427.99 265.938 428.523 265.692C429.057 265.44 429.657 265.314 430.325 265.314C430.999 265.314 431.603 265.44 432.136 265.692C432.675 265.938 433.129 266.278 433.498 266.712C433.873 267.146 434.16 267.658 434.359 268.25C434.559 268.836 434.658 269.472 434.658 270.157V270.351C434.658 271.036 434.559 271.672 434.359 272.258C434.16 272.844 433.873 273.354 433.498 273.787C433.129 274.221 432.678 274.561 432.145 274.807C431.611 275.053 431.011 275.176 430.343 275.176C429.669 275.176 429.062 275.053 428.523 274.807C427.99 274.561 427.536 274.221 427.161 273.787C426.792 273.354 426.508 272.844 426.309 272.258C426.109 271.672 426.01 271.036 426.01 270.351V270.157ZM427.636 270.351C427.636 270.819 427.691 271.268 427.803 271.695C427.914 272.117 428.081 272.489 428.304 272.812C428.532 273.134 428.816 273.389 429.156 273.576C429.496 273.764 429.892 273.857 430.343 273.857C430.788 273.857 431.178 273.764 431.512 273.576C431.852 273.389 432.133 273.134 432.355 272.812C432.584 272.489 432.754 272.117 432.865 271.695C432.977 271.268 433.032 270.819 433.032 270.351V270.157C433.032 269.694 432.974 269.252 432.856 268.83C432.745 268.402 432.575 268.027 432.347 267.705C432.124 267.383 431.843 267.128 431.503 266.94C431.169 266.747 430.776 266.65 430.325 266.65C429.874 266.65 429.481 266.747 429.147 266.94C428.813 267.128 428.532 267.383 428.304 267.705C428.081 268.027 427.914 268.402 427.803 268.83C427.691 269.252 427.636 269.694 427.636 270.157V270.351ZM436.82 270.157C436.82 269.472 436.92 268.836 437.119 268.25C437.318 267.658 437.603 267.146 437.972 266.712C438.347 266.278 438.801 265.938 439.334 265.692C439.867 265.44 440.468 265.314 441.136 265.314C441.81 265.314 442.413 265.44 442.946 265.692C443.485 265.938 443.939 266.278 444.309 266.712C444.684 267.146 444.971 267.658 445.17 268.25C445.369 268.836 445.469 269.472 445.469 270.157V270.351C445.469 271.036 445.369 271.672 445.17 272.258C444.971 272.844 444.684 273.354 444.309 273.787C443.939 274.221 443.488 274.561 442.955 274.807C442.422 275.053 441.821 275.176 441.153 275.176C440.479 275.176 439.873 275.053 439.334 274.807C438.801 274.561 438.347 274.221 437.972 273.787C437.603 273.354 437.318 272.844 437.119 272.258C436.92 271.672 436.82 271.036 436.82 270.351V270.157ZM438.446 270.351C438.446 270.819 438.502 271.268 438.613 271.695C438.725 272.117 438.892 272.489 439.114 272.812C439.343 273.134 439.627 273.389 439.967 273.576C440.307 273.764 440.702 273.857 441.153 273.857C441.599 273.857 441.988 273.764 442.322 273.576C442.662 273.389 442.943 273.134 443.166 272.812C443.395 272.489 443.564 272.117 443.676 271.695C443.787 271.268 443.843 270.819 443.843 270.351V270.157C443.843 269.694 443.784 269.252 443.667 268.83C443.556 268.402 443.386 268.027 443.157 267.705C442.935 267.383 442.653 267.128 442.313 266.94C441.979 266.747 441.587 266.65 441.136 266.65C440.685 266.65 440.292 266.747 439.958 266.94C439.624 267.128 439.343 267.383 439.114 267.705C438.892 268.027 438.725 268.402 438.613 268.83C438.502 269.252 438.446 269.694 438.446 270.157V270.351ZM448.343 261.5H453.203V273.594H456.306V275H448.343V273.594H451.577V262.915H448.343V261.5ZM472.135 275V266.747H469.516V265.49H472.135V264.822C472.135 264.213 472.223 263.68 472.398 263.223C472.58 262.76 472.832 262.373 473.154 262.062C473.482 261.752 473.875 261.518 474.332 261.359C474.789 261.201 475.299 261.122 475.861 261.122C476.248 261.122 476.623 261.154 476.986 261.219C477.355 261.283 477.733 261.365 478.12 261.465L477.927 262.81C477.687 262.728 477.405 262.657 477.083 262.599C476.767 262.534 476.427 262.502 476.063 262.502C475.302 262.508 474.728 262.701 474.341 263.082C473.96 263.463 473.77 264.043 473.77 264.822V265.49H477.435V266.747H473.77V275H472.135ZM480.062 270.157C480.062 269.472 480.162 268.836 480.361 268.25C480.561 267.658 480.845 267.146 481.214 266.712C481.589 266.278 482.043 265.938 482.576 265.692C483.109 265.44 483.71 265.314 484.378 265.314C485.052 265.314 485.655 265.44 486.188 265.692C486.728 265.938 487.182 266.278 487.551 266.712C487.926 267.146 488.213 267.658 488.412 268.25C488.611 268.836 488.711 269.472 488.711 270.157V270.351C488.711 271.036 488.611 271.672 488.412 272.258C488.213 272.844 487.926 273.354 487.551 273.787C487.182 274.221 486.73 274.561 486.197 274.807C485.664 275.053 485.063 275.176 484.396 275.176C483.722 275.176 483.115 275.053 482.576 274.807C482.043 274.561 481.589 274.221 481.214 273.787C480.845 273.354 480.561 272.844 480.361 272.258C480.162 271.672 480.062 271.036 480.062 270.351V270.157ZM481.688 270.351C481.688 270.819 481.744 271.268 481.855 271.695C481.967 272.117 482.134 272.489 482.356 272.812C482.585 273.134 482.869 273.389 483.209 273.576C483.549 273.764 483.944 273.857 484.396 273.857C484.841 273.857 485.23 273.764 485.564 273.576C485.904 273.389 486.186 273.134 486.408 272.812C486.637 272.489 486.807 272.117 486.918 271.695C487.029 271.268 487.085 270.819 487.085 270.351V270.157C487.085 269.694 487.026 269.252 486.909 268.83C486.798 268.402 486.628 268.027 486.399 267.705C486.177 267.383 485.896 267.128 485.556 266.94C485.222 266.747 484.829 266.65 484.378 266.65C483.927 266.65 483.534 266.747 483.2 266.94C482.866 267.128 482.585 267.383 482.356 267.705C482.134 268.027 481.967 268.402 481.855 268.83C481.744 269.252 481.688 269.694 481.688 270.157V270.351ZM497.562 265.314C497.714 265.314 497.872 265.32 498.036 265.332C498.2 265.338 498.355 265.353 498.502 265.376C498.654 265.394 498.792 265.417 498.915 265.446C499.044 265.476 499.149 265.508 499.231 265.543L499.012 267.134C498.695 267.063 498.394 267.014 498.106 266.984C497.825 266.949 497.529 266.932 497.219 266.932C496.457 266.932 495.839 267.104 495.364 267.45C494.896 267.796 494.55 268.279 494.327 268.9V275H492.692V265.49H494.239L494.318 267.002C494.705 266.48 495.168 266.07 495.707 265.771C496.252 265.467 496.87 265.314 497.562 265.314ZM81.9883 294.49L82.1025 295.896C82.4482 295.404 82.873 295.021 83.377 294.745C83.8809 294.464 84.4434 294.32 85.0645 294.314C85.5625 294.314 86.0137 294.385 86.418 294.525C86.8281 294.666 87.1768 294.886 87.4639 295.185C87.751 295.483 87.9707 295.864 88.123 296.327C88.2812 296.784 88.3604 297.329 88.3604 297.962V304H86.7344V297.997C86.7344 297.575 86.6875 297.218 86.5938 296.925C86.5 296.632 86.3594 296.395 86.1719 296.213C85.9902 296.031 85.7646 295.899 85.4951 295.817C85.2314 295.735 84.9268 295.694 84.5811 295.694C84.0361 295.694 83.5557 295.832 83.1396 296.107C82.7295 296.377 82.4014 296.734 82.1553 297.18V304H80.5293V294.49H81.9883ZM95.541 304.176C94.873 304.176 94.2578 304.062 93.6953 303.833C93.1387 303.604 92.6611 303.285 92.2627 302.875C91.8643 302.465 91.5537 301.979 91.3311 301.416C91.1084 300.854 90.9971 300.241 90.9971 299.579V299.21C90.9971 298.442 91.1201 297.757 91.3662 297.153C91.6123 296.544 91.9375 296.031 92.3418 295.615C92.752 295.193 93.2148 294.871 93.7305 294.648C94.252 294.426 94.7852 294.314 95.3301 294.314C96.0156 294.314 96.6133 294.435 97.123 294.675C97.6387 294.909 98.0664 295.237 98.4062 295.659C98.7461 296.075 98.998 296.567 99.1621 297.136C99.332 297.704 99.417 298.319 99.417 298.981V299.711H92.623C92.6406 300.145 92.7227 300.552 92.8691 300.933C93.0215 301.313 93.2266 301.647 93.4844 301.935C93.748 302.216 94.0615 302.438 94.4248 302.603C94.7881 302.767 95.1895 302.849 95.6289 302.849C96.209 302.849 96.7246 302.731 97.1758 302.497C97.627 302.263 98.002 301.952 98.3008 301.565L99.2939 302.339C99.1357 302.579 98.9365 302.811 98.6963 303.033C98.4619 303.25 98.1895 303.443 97.8789 303.613C97.5684 303.783 97.2168 303.918 96.8242 304.018C96.4316 304.123 96.0039 304.176 95.541 304.176ZM95.3301 295.65C95.002 295.65 94.6914 295.712 94.3984 295.835C94.1055 295.952 93.8418 296.128 93.6074 296.362C93.373 296.591 93.1738 296.875 93.0098 297.215C92.8516 297.549 92.7402 297.936 92.6758 298.375H97.791V298.252C97.7734 297.936 97.7119 297.622 97.6064 297.312C97.5068 297.001 97.3574 296.723 97.1582 296.477C96.959 296.23 96.707 296.031 96.4023 295.879C96.1035 295.727 95.7461 295.65 95.3301 295.65ZM103.592 300.555L103.785 301.917L104.022 300.555L105.543 294.49H106.589L108.101 300.555L108.355 302.049L108.593 300.555L109.647 294.49H111.089L109.067 304H107.784L106.299 298.173L106.053 296.696L105.815 298.173L104.348 304H103.064L101.043 294.49H102.484L103.592 300.555ZM130.021 304C129.956 303.877 129.903 303.725 129.862 303.543C129.827 303.355 129.801 303.162 129.783 302.963C129.619 303.127 129.435 303.282 129.229 303.429C129.03 303.575 128.808 303.704 128.562 303.815C128.321 303.927 128.063 304.015 127.788 304.079C127.513 304.144 127.22 304.176 126.909 304.176C126.405 304.176 125.948 304.103 125.538 303.956C125.134 303.81 124.788 303.613 124.501 303.367C124.22 303.115 124 302.819 123.842 302.479C123.689 302.134 123.613 301.762 123.613 301.363C123.613 300.842 123.716 300.385 123.921 299.992C124.132 299.6 124.428 299.274 124.809 299.017C125.189 298.753 125.646 298.557 126.18 298.428C126.719 298.299 127.319 298.234 127.981 298.234H129.757V297.487C129.757 297.2 129.704 296.942 129.599 296.714C129.493 296.485 129.344 296.292 129.15 296.134C128.957 295.97 128.72 295.844 128.438 295.756C128.163 295.668 127.853 295.624 127.507 295.624C127.185 295.624 126.895 295.665 126.637 295.747C126.385 295.829 126.171 295.938 125.995 296.072C125.819 296.207 125.682 296.368 125.582 296.556C125.488 296.737 125.441 296.928 125.441 297.127H123.807C123.812 296.781 123.9 296.441 124.07 296.107C124.246 295.773 124.495 295.475 124.817 295.211C125.146 294.941 125.541 294.725 126.004 294.561C126.473 294.396 127.003 294.314 127.595 294.314C128.134 294.314 128.635 294.382 129.098 294.517C129.561 294.646 129.959 294.845 130.293 295.114C130.633 295.378 130.899 295.709 131.093 296.107C131.286 296.506 131.383 296.972 131.383 297.505V301.926C131.383 302.242 131.412 302.579 131.471 302.937C131.529 303.288 131.611 303.596 131.717 303.859V304H130.021ZM127.146 302.761C127.463 302.761 127.759 302.72 128.034 302.638C128.31 302.556 128.559 302.447 128.781 302.312C129.01 302.178 129.206 302.025 129.37 301.855C129.534 301.68 129.663 301.498 129.757 301.311V299.386H128.245C127.296 299.386 126.558 299.526 126.03 299.808C125.503 300.089 125.239 300.531 125.239 301.135C125.239 301.369 125.277 301.586 125.354 301.785C125.436 301.984 125.556 302.157 125.714 302.304C125.872 302.444 126.071 302.556 126.312 302.638C126.552 302.72 126.83 302.761 127.146 302.761ZM136.041 294.49L136.155 295.896C136.501 295.404 136.926 295.021 137.43 294.745C137.934 294.464 138.496 294.32 139.117 294.314C139.615 294.314 140.066 294.385 140.471 294.525C140.881 294.666 141.229 294.886 141.517 295.185C141.804 295.483 142.023 295.864 142.176 296.327C142.334 296.784 142.413 297.329 142.413 297.962V304H140.787V297.997C140.787 297.575 140.74 297.218 140.646 296.925C140.553 296.632 140.412 296.395 140.225 296.213C140.043 296.031 139.817 295.899 139.548 295.817C139.284 295.735 138.979 295.694 138.634 295.694C138.089 295.694 137.608 295.832 137.192 296.107C136.782 296.377 136.454 296.734 136.208 297.18V304H134.582V294.49H136.041ZM145.085 299.166C145.085 298.457 145.173 297.807 145.349 297.215C145.53 296.617 145.785 296.104 146.113 295.677C146.447 295.249 146.849 294.915 147.317 294.675C147.786 294.435 148.311 294.314 148.891 294.314C149.459 294.314 149.954 294.411 150.376 294.604C150.804 294.792 151.173 295.067 151.483 295.431V290.5H153.109V304H151.615L151.545 302.998C151.229 303.385 150.851 303.678 150.411 303.877C149.972 304.076 149.459 304.176 148.873 304.176C148.299 304.176 147.777 304.053 147.309 303.807C146.846 303.561 146.45 303.221 146.122 302.787C145.794 302.354 145.539 301.844 145.357 301.258C145.176 300.666 145.085 300.03 145.085 299.351V299.166ZM146.711 299.351C146.711 299.813 146.761 300.253 146.86 300.669C146.96 301.085 147.112 301.451 147.317 301.768C147.528 302.084 147.795 302.336 148.117 302.523C148.439 302.705 148.826 302.796 149.277 302.796C149.553 302.796 149.802 302.764 150.024 302.699C150.247 302.635 150.449 302.544 150.631 302.427C150.812 302.304 150.974 302.16 151.114 301.996C151.255 301.826 151.378 301.639 151.483 301.434V297.021C151.272 296.635 150.988 296.318 150.631 296.072C150.273 295.82 149.828 295.694 149.295 295.694C148.838 295.694 148.445 295.788 148.117 295.976C147.795 296.163 147.528 296.418 147.317 296.74C147.112 297.057 146.96 297.426 146.86 297.848C146.761 298.264 146.711 298.703 146.711 299.166V299.351ZM166.557 299.157C166.557 298.472 166.656 297.836 166.855 297.25C167.055 296.658 167.339 296.146 167.708 295.712C168.083 295.278 168.537 294.938 169.07 294.692C169.604 294.44 170.204 294.314 170.872 294.314C171.546 294.314 172.149 294.44 172.683 294.692C173.222 294.938 173.676 295.278 174.045 295.712C174.42 296.146 174.707 296.658 174.906 297.25C175.105 297.836 175.205 298.472 175.205 299.157V299.351C175.205 300.036 175.105 300.672 174.906 301.258C174.707 301.844 174.42 302.354 174.045 302.787C173.676 303.221 173.225 303.561 172.691 303.807C172.158 304.053 171.558 304.176 170.89 304.176C170.216 304.176 169.609 304.053 169.07 303.807C168.537 303.561 168.083 303.221 167.708 302.787C167.339 302.354 167.055 301.844 166.855 301.258C166.656 300.672 166.557 300.036 166.557 299.351V299.157ZM168.183 299.351C168.183 299.819 168.238 300.268 168.35 300.695C168.461 301.117 168.628 301.489 168.851 301.812C169.079 302.134 169.363 302.389 169.703 302.576C170.043 302.764 170.438 302.857 170.89 302.857C171.335 302.857 171.725 302.764 172.059 302.576C172.398 302.389 172.68 302.134 172.902 301.812C173.131 301.489 173.301 301.117 173.412 300.695C173.523 300.268 173.579 299.819 173.579 299.351V299.157C173.579 298.694 173.521 298.252 173.403 297.83C173.292 297.402 173.122 297.027 172.894 296.705C172.671 296.383 172.39 296.128 172.05 295.94C171.716 295.747 171.323 295.65 170.872 295.65C170.421 295.65 170.028 295.747 169.694 295.94C169.36 296.128 169.079 296.383 168.851 296.705C168.628 297.027 168.461 297.402 168.35 297.83C168.238 298.252 168.183 298.694 168.183 299.157V299.351ZM185.884 299.351C185.884 300.03 185.802 300.666 185.638 301.258C185.474 301.844 185.233 302.354 184.917 302.787C184.601 303.221 184.208 303.561 183.739 303.807C183.276 304.053 182.743 304.176 182.14 304.176C181.53 304.176 181 304.067 180.549 303.851C180.104 303.634 179.723 303.323 179.406 302.919L179.327 304H177.833V290.5H179.459V295.51C179.77 295.123 180.145 294.827 180.584 294.622C181.023 294.417 181.536 294.314 182.122 294.314C182.731 294.314 183.271 294.435 183.739 294.675C184.208 294.915 184.601 295.249 184.917 295.677C185.233 296.104 185.474 296.617 185.638 297.215C185.802 297.807 185.884 298.457 185.884 299.166V299.351ZM184.258 299.166C184.258 298.703 184.211 298.264 184.117 297.848C184.029 297.426 183.886 297.057 183.687 296.74C183.487 296.418 183.227 296.163 182.904 295.976C182.582 295.788 182.187 295.694 181.718 295.694C181.437 295.694 181.179 295.732 180.944 295.809C180.71 295.879 180.499 295.981 180.312 296.116C180.13 296.245 179.966 296.4 179.819 296.582C179.679 296.758 179.559 296.951 179.459 297.162V301.319C179.564 301.53 179.688 301.727 179.828 301.908C179.975 302.084 180.142 302.239 180.329 302.374C180.517 302.509 180.728 302.614 180.962 302.69C181.196 302.761 181.454 302.796 181.735 302.796C182.181 302.796 182.562 302.705 182.878 302.523C183.2 302.336 183.461 302.084 183.66 301.768C183.865 301.451 184.015 301.085 184.108 300.669C184.208 300.253 184.258 299.813 184.258 299.351V299.166ZM194.954 301.478C194.954 301.284 194.916 301.111 194.84 300.959C194.764 300.801 194.635 300.657 194.453 300.528C194.271 300.399 194.031 300.282 193.732 300.177C193.434 300.065 193.062 299.966 192.616 299.878C192.071 299.767 191.573 299.632 191.122 299.474C190.677 299.315 190.293 299.128 189.971 298.911C189.654 298.688 189.408 298.431 189.232 298.138C189.057 297.839 188.969 297.493 188.969 297.101C188.969 296.714 189.06 296.354 189.241 296.02C189.423 295.68 189.678 295.384 190.006 295.132C190.334 294.88 190.724 294.681 191.175 294.534C191.632 294.388 192.133 294.314 192.678 294.314C193.264 294.314 193.791 294.391 194.26 294.543C194.729 294.695 195.127 294.906 195.455 295.176C195.783 295.445 196.035 295.762 196.211 296.125C196.393 296.482 196.483 296.869 196.483 297.285H194.857C194.857 297.08 194.805 296.881 194.699 296.688C194.594 296.488 194.447 296.312 194.26 296.16C194.072 296.008 193.844 295.885 193.574 295.791C193.311 295.697 193.012 295.65 192.678 295.65C192.332 295.65 192.027 295.688 191.764 295.765C191.506 295.841 191.289 295.943 191.113 296.072C190.943 296.201 190.814 296.351 190.727 296.521C190.639 296.69 190.595 296.866 190.595 297.048C190.595 297.235 190.63 297.402 190.7 297.549C190.771 297.695 190.891 297.827 191.061 297.944C191.236 298.062 191.468 298.167 191.755 298.261C192.048 298.354 192.417 298.445 192.862 298.533C193.448 298.656 193.973 298.8 194.436 298.964C194.898 299.122 195.288 299.315 195.604 299.544C195.921 299.767 196.161 300.027 196.325 300.326C196.495 300.625 196.58 300.971 196.58 301.363C196.58 301.785 196.483 302.169 196.29 302.515C196.103 302.86 195.839 303.156 195.499 303.402C195.159 303.648 194.752 303.839 194.277 303.974C193.803 304.108 193.284 304.176 192.722 304.176C192.077 304.176 191.503 304.091 190.999 303.921C190.495 303.745 190.067 303.517 189.716 303.235C189.37 302.948 189.104 302.617 188.916 302.242C188.734 301.867 188.644 301.478 188.644 301.073H190.27C190.293 301.407 190.381 301.688 190.533 301.917C190.691 302.146 190.885 302.33 191.113 302.471C191.348 302.611 191.605 302.711 191.887 302.77C192.168 302.828 192.446 302.857 192.722 302.857C193.407 302.857 193.949 302.731 194.348 302.479C194.746 302.228 194.948 301.894 194.954 301.478ZM198.988 299.157C198.988 298.472 199.088 297.836 199.287 297.25C199.486 296.658 199.771 296.146 200.14 295.712C200.515 295.278 200.969 294.938 201.502 294.692C202.035 294.44 202.636 294.314 203.304 294.314C203.978 294.314 204.581 294.44 205.114 294.692C205.653 294.938 206.107 295.278 206.477 295.712C206.852 296.146 207.139 296.658 207.338 297.25C207.537 297.836 207.637 298.472 207.637 299.157V299.351C207.637 300.036 207.537 300.672 207.338 301.258C207.139 301.844 206.852 302.354 206.477 302.787C206.107 303.221 205.656 303.561 205.123 303.807C204.59 304.053 203.989 304.176 203.321 304.176C202.647 304.176 202.041 304.053 201.502 303.807C200.969 303.561 200.515 303.221 200.14 302.787C199.771 302.354 199.486 301.844 199.287 301.258C199.088 300.672 198.988 300.036 198.988 299.351V299.157ZM200.614 299.351C200.614 299.819 200.67 300.268 200.781 300.695C200.893 301.117 201.06 301.489 201.282 301.812C201.511 302.134 201.795 302.389 202.135 302.576C202.475 302.764 202.87 302.857 203.321 302.857C203.767 302.857 204.156 302.764 204.49 302.576C204.83 302.389 205.111 302.134 205.334 301.812C205.562 301.489 205.732 301.117 205.844 300.695C205.955 300.268 206.011 299.819 206.011 299.351V299.157C206.011 298.694 205.952 298.252 205.835 297.83C205.724 297.402 205.554 297.027 205.325 296.705C205.103 296.383 204.821 296.128 204.481 295.94C204.147 295.747 203.755 295.65 203.304 295.65C202.853 295.65 202.46 295.747 202.126 295.94C201.792 296.128 201.511 296.383 201.282 296.705C201.06 297.027 200.893 297.402 200.781 297.83C200.67 298.252 200.614 298.694 200.614 299.157V299.351ZM210.511 290.5H215.371V302.594H218.474V304H210.511V302.594H213.745V291.915H210.511V290.5ZM225.268 304.176C224.6 304.176 223.984 304.062 223.422 303.833C222.865 303.604 222.388 303.285 221.989 302.875C221.591 302.465 221.28 301.979 221.058 301.416C220.835 300.854 220.724 300.241 220.724 299.579V299.21C220.724 298.442 220.847 297.757 221.093 297.153C221.339 296.544 221.664 296.031 222.068 295.615C222.479 295.193 222.941 294.871 223.457 294.648C223.979 294.426 224.512 294.314 225.057 294.314C225.742 294.314 226.34 294.435 226.85 294.675C227.365 294.909 227.793 295.237 228.133 295.659C228.473 296.075 228.725 296.567 228.889 297.136C229.059 297.704 229.144 298.319 229.144 298.981V299.711H222.35C222.367 300.145 222.449 300.552 222.596 300.933C222.748 301.313 222.953 301.647 223.211 301.935C223.475 302.216 223.788 302.438 224.151 302.603C224.515 302.767 224.916 302.849 225.355 302.849C225.936 302.849 226.451 302.731 226.902 302.497C227.354 302.263 227.729 301.952 228.027 301.565L229.021 302.339C228.862 302.579 228.663 302.811 228.423 303.033C228.188 303.25 227.916 303.443 227.605 303.613C227.295 303.783 226.943 303.918 226.551 304.018C226.158 304.123 225.73 304.176 225.268 304.176ZM225.057 295.65C224.729 295.65 224.418 295.712 224.125 295.835C223.832 295.952 223.568 296.128 223.334 296.362C223.1 296.591 222.9 296.875 222.736 297.215C222.578 297.549 222.467 297.936 222.402 298.375H227.518V298.252C227.5 297.936 227.438 297.622 227.333 297.312C227.233 297.001 227.084 296.723 226.885 296.477C226.686 296.23 226.434 296.031 226.129 295.879C225.83 295.727 225.473 295.65 225.057 295.65ZM235.727 292.188V294.49H239.348V295.747H235.727V300.915C235.727 301.284 235.773 301.589 235.867 301.829C235.961 302.069 236.09 302.263 236.254 302.409C236.418 302.55 236.605 302.649 236.816 302.708C237.033 302.767 237.262 302.796 237.502 302.796C237.678 302.796 237.859 302.787 238.047 302.77C238.234 302.746 238.416 302.72 238.592 302.69C238.773 302.661 238.94 302.632 239.093 302.603C239.251 302.567 239.38 302.538 239.479 302.515L239.708 303.666C239.573 303.748 239.409 303.821 239.216 303.886C239.022 303.944 238.812 303.994 238.583 304.035C238.354 304.082 238.111 304.117 237.854 304.141C237.602 304.164 237.35 304.176 237.098 304.176C236.676 304.176 236.28 304.117 235.911 304C235.548 303.877 235.231 303.687 234.962 303.429C234.692 303.165 234.479 302.828 234.32 302.418C234.168 302.002 234.092 301.501 234.092 300.915V295.747H231.596V294.49H234.092V292.188H235.727ZM246.889 304.176C246.221 304.176 245.605 304.062 245.043 303.833C244.486 303.604 244.009 303.285 243.61 302.875C243.212 302.465 242.901 301.979 242.679 301.416C242.456 300.854 242.345 300.241 242.345 299.579V299.21C242.345 298.442 242.468 297.757 242.714 297.153C242.96 296.544 243.285 296.031 243.689 295.615C244.1 295.193 244.562 294.871 245.078 294.648C245.6 294.426 246.133 294.314 246.678 294.314C247.363 294.314 247.961 294.435 248.471 294.675C248.986 294.909 249.414 295.237 249.754 295.659C250.094 296.075 250.346 296.567 250.51 297.136C250.68 297.704 250.765 298.319 250.765 298.981V299.711H243.971C243.988 300.145 244.07 300.552 244.217 300.933C244.369 301.313 244.574 301.647 244.832 301.935C245.096 302.216 245.409 302.438 245.772 302.603C246.136 302.767 246.537 302.849 246.977 302.849C247.557 302.849 248.072 302.731 248.523 302.497C248.975 302.263 249.35 301.952 249.648 301.565L250.642 302.339C250.483 302.579 250.284 302.811 250.044 303.033C249.81 303.25 249.537 303.443 249.227 303.613C248.916 303.783 248.564 303.918 248.172 304.018C247.779 304.123 247.352 304.176 246.889 304.176ZM246.678 295.65C246.35 295.65 246.039 295.712 245.746 295.835C245.453 295.952 245.189 296.128 244.955 296.362C244.721 296.591 244.521 296.875 244.357 297.215C244.199 297.549 244.088 297.936 244.023 298.375H249.139V298.252C249.121 297.936 249.06 297.622 248.954 297.312C248.854 297.001 248.705 296.723 248.506 296.477C248.307 296.23 248.055 296.031 247.75 295.879C247.451 295.727 247.094 295.65 246.678 295.65ZM270.558 304C270.493 303.877 270.44 303.725 270.399 303.543C270.364 303.355 270.338 303.162 270.32 302.963C270.156 303.127 269.972 303.282 269.767 303.429C269.567 303.575 269.345 303.704 269.099 303.815C268.858 303.927 268.601 304.015 268.325 304.079C268.05 304.144 267.757 304.176 267.446 304.176C266.942 304.176 266.485 304.103 266.075 303.956C265.671 303.81 265.325 303.613 265.038 303.367C264.757 303.115 264.537 302.819 264.379 302.479C264.227 302.134 264.15 301.762 264.15 301.363C264.15 300.842 264.253 300.385 264.458 299.992C264.669 299.6 264.965 299.274 265.346 299.017C265.727 298.753 266.184 298.557 266.717 298.428C267.256 298.299 267.856 298.234 268.519 298.234H270.294V297.487C270.294 297.2 270.241 296.942 270.136 296.714C270.03 296.485 269.881 296.292 269.688 296.134C269.494 295.97 269.257 295.844 268.976 295.756C268.7 295.668 268.39 295.624 268.044 295.624C267.722 295.624 267.432 295.665 267.174 295.747C266.922 295.829 266.708 295.938 266.532 296.072C266.356 296.207 266.219 296.368 266.119 296.556C266.025 296.737 265.979 296.928 265.979 297.127H264.344C264.35 296.781 264.438 296.441 264.607 296.107C264.783 295.773 265.032 295.475 265.354 295.211C265.683 294.941 266.078 294.725 266.541 294.561C267.01 294.396 267.54 294.314 268.132 294.314C268.671 294.314 269.172 294.382 269.635 294.517C270.098 294.646 270.496 294.845 270.83 295.114C271.17 295.378 271.437 295.709 271.63 296.107C271.823 296.506 271.92 296.972 271.92 297.505V301.926C271.92 302.242 271.949 302.579 272.008 302.937C272.066 303.288 272.148 303.596 272.254 303.859V304H270.558ZM267.684 302.761C268 302.761 268.296 302.72 268.571 302.638C268.847 302.556 269.096 302.447 269.318 302.312C269.547 302.178 269.743 302.025 269.907 301.855C270.071 301.68 270.2 301.498 270.294 301.311V299.386H268.782C267.833 299.386 267.095 299.526 266.567 299.808C266.04 300.089 265.776 300.531 265.776 301.135C265.776 301.369 265.814 301.586 265.891 301.785C265.973 301.984 266.093 302.157 266.251 302.304C266.409 302.444 266.608 302.556 266.849 302.638C267.089 302.72 267.367 302.761 267.684 302.761ZM276.578 294.49L276.692 295.896C277.038 295.404 277.463 295.021 277.967 294.745C278.471 294.464 279.033 294.32 279.654 294.314C280.152 294.314 280.604 294.385 281.008 294.525C281.418 294.666 281.767 294.886 282.054 295.185C282.341 295.483 282.561 295.864 282.713 296.327C282.871 296.784 282.95 297.329 282.95 297.962V304H281.324V297.997C281.324 297.575 281.277 297.218 281.184 296.925C281.09 296.632 280.949 296.395 280.762 296.213C280.58 296.031 280.354 295.899 280.085 295.817C279.821 295.735 279.517 295.694 279.171 295.694C278.626 295.694 278.146 295.832 277.729 296.107C277.319 296.377 276.991 296.734 276.745 297.18V304H275.119V294.49H276.578ZM285.622 299.166C285.622 298.457 285.71 297.807 285.886 297.215C286.067 296.617 286.322 296.104 286.65 295.677C286.984 295.249 287.386 294.915 287.854 294.675C288.323 294.435 288.848 294.314 289.428 294.314C289.996 294.314 290.491 294.411 290.913 294.604C291.341 294.792 291.71 295.067 292.021 295.431V290.5H293.646V304H292.152L292.082 302.998C291.766 303.385 291.388 303.678 290.948 303.877C290.509 304.076 289.996 304.176 289.41 304.176C288.836 304.176 288.314 304.053 287.846 303.807C287.383 303.561 286.987 303.221 286.659 302.787C286.331 302.354 286.076 301.844 285.895 301.258C285.713 300.666 285.622 300.03 285.622 299.351V299.166ZM287.248 299.351C287.248 299.813 287.298 300.253 287.397 300.669C287.497 301.085 287.649 301.451 287.854 301.768C288.065 302.084 288.332 302.336 288.654 302.523C288.977 302.705 289.363 302.796 289.814 302.796C290.09 302.796 290.339 302.764 290.562 302.699C290.784 302.635 290.986 302.544 291.168 302.427C291.35 302.304 291.511 302.16 291.651 301.996C291.792 301.826 291.915 301.639 292.021 301.434V297.021C291.81 296.635 291.525 296.318 291.168 296.072C290.811 295.82 290.365 295.694 289.832 295.694C289.375 295.694 288.982 295.788 288.654 295.976C288.332 296.163 288.065 296.418 287.854 296.74C287.649 297.057 287.497 297.426 287.397 297.848C287.298 298.264 287.248 298.703 287.248 299.166V299.351ZM302.972 294.314C303.124 294.314 303.282 294.32 303.446 294.332C303.61 294.338 303.766 294.353 303.912 294.376C304.064 294.394 304.202 294.417 304.325 294.446C304.454 294.476 304.56 294.508 304.642 294.543L304.422 296.134C304.105 296.063 303.804 296.014 303.517 295.984C303.235 295.949 302.939 295.932 302.629 295.932C301.867 295.932 301.249 296.104 300.774 296.45C300.306 296.796 299.96 297.279 299.737 297.9V304H298.103V294.49H299.649L299.729 296.002C300.115 295.48 300.578 295.07 301.117 294.771C301.662 294.467 302.28 294.314 302.972 294.314ZM307.094 299.157C307.094 298.472 307.193 297.836 307.393 297.25C307.592 296.658 307.876 296.146 308.245 295.712C308.62 295.278 309.074 294.938 309.607 294.692C310.141 294.44 310.741 294.314 311.409 294.314C312.083 294.314 312.687 294.44 313.22 294.692C313.759 294.938 314.213 295.278 314.582 295.712C314.957 296.146 315.244 296.658 315.443 297.25C315.643 297.836 315.742 298.472 315.742 299.157V299.351C315.742 300.036 315.643 300.672 315.443 301.258C315.244 301.844 314.957 302.354 314.582 302.787C314.213 303.221 313.762 303.561 313.229 303.807C312.695 304.053 312.095 304.176 311.427 304.176C310.753 304.176 310.146 304.053 309.607 303.807C309.074 303.561 308.62 303.221 308.245 302.787C307.876 302.354 307.592 301.844 307.393 301.258C307.193 300.672 307.094 300.036 307.094 299.351V299.157ZM308.72 299.351C308.72 299.819 308.775 300.268 308.887 300.695C308.998 301.117 309.165 301.489 309.388 301.812C309.616 302.134 309.9 302.389 310.24 302.576C310.58 302.764 310.976 302.857 311.427 302.857C311.872 302.857 312.262 302.764 312.596 302.576C312.936 302.389 313.217 302.134 313.439 301.812C313.668 301.489 313.838 301.117 313.949 300.695C314.061 300.268 314.116 299.819 314.116 299.351V299.157C314.116 298.694 314.058 298.252 313.94 297.83C313.829 297.402 313.659 297.027 313.431 296.705C313.208 296.383 312.927 296.128 312.587 295.94C312.253 295.747 311.86 295.65 311.409 295.65C310.958 295.65 310.565 295.747 310.231 295.94C309.897 296.128 309.616 296.383 309.388 296.705C309.165 297.027 308.998 297.402 308.887 297.83C308.775 298.252 308.72 298.694 308.72 299.157V299.351ZM318.616 294.49H323.477V302.594H326.579V304H318.616V302.594H321.851V295.905H318.616V294.49ZM321.64 291.994C321.64 291.725 321.719 291.499 321.877 291.317C322.041 291.13 322.287 291.036 322.615 291.036C322.938 291.036 323.181 291.13 323.345 291.317C323.509 291.499 323.591 291.725 323.591 291.994C323.591 292.258 323.509 292.478 323.345 292.653C323.181 292.829 322.938 292.917 322.615 292.917C322.287 292.917 322.041 292.829 321.877 292.653C321.719 292.478 321.64 292.258 321.64 291.994ZM328.864 299.166C328.864 298.457 328.952 297.807 329.128 297.215C329.31 296.617 329.564 296.104 329.893 295.677C330.227 295.249 330.628 294.915 331.097 294.675C331.565 294.435 332.09 294.314 332.67 294.314C333.238 294.314 333.733 294.411 334.155 294.604C334.583 294.792 334.952 295.067 335.263 295.431V290.5H336.889V304H335.395L335.324 302.998C335.008 303.385 334.63 303.678 334.19 303.877C333.751 304.076 333.238 304.176 332.652 304.176C332.078 304.176 331.557 304.053 331.088 303.807C330.625 303.561 330.229 303.221 329.901 302.787C329.573 302.354 329.318 301.844 329.137 301.258C328.955 300.666 328.864 300.03 328.864 299.351V299.166ZM330.49 299.351C330.49 299.813 330.54 300.253 330.64 300.669C330.739 301.085 330.892 301.451 331.097 301.768C331.308 302.084 331.574 302.336 331.896 302.523C332.219 302.705 332.605 302.796 333.057 302.796C333.332 302.796 333.581 302.764 333.804 302.699C334.026 302.635 334.229 302.544 334.41 302.427C334.592 302.304 334.753 302.16 334.894 301.996C335.034 301.826 335.157 301.639 335.263 301.434V297.021C335.052 296.635 334.768 296.318 334.41 296.072C334.053 295.82 333.607 295.694 333.074 295.694C332.617 295.694 332.225 295.788 331.896 295.976C331.574 296.163 331.308 296.418 331.097 296.74C330.892 297.057 330.739 297.426 330.64 297.848C330.54 298.264 330.49 298.703 330.49 299.166V299.351ZM350.485 299.166C350.485 298.457 350.573 297.807 350.749 297.215C350.931 296.617 351.186 296.104 351.514 295.677C351.848 295.249 352.249 294.915 352.718 294.675C353.187 294.435 353.711 294.314 354.291 294.314C354.859 294.314 355.354 294.411 355.776 294.604C356.204 294.792 356.573 295.067 356.884 295.431V290.5H358.51V304H357.016L356.945 302.998C356.629 303.385 356.251 303.678 355.812 303.877C355.372 304.076 354.859 304.176 354.273 304.176C353.699 304.176 353.178 304.053 352.709 303.807C352.246 303.561 351.851 303.221 351.522 302.787C351.194 302.354 350.939 301.844 350.758 301.258C350.576 300.666 350.485 300.03 350.485 299.351V299.166ZM352.111 299.351C352.111 299.813 352.161 300.253 352.261 300.669C352.36 301.085 352.513 301.451 352.718 301.768C352.929 302.084 353.195 302.336 353.518 302.523C353.84 302.705 354.227 302.796 354.678 302.796C354.953 302.796 355.202 302.764 355.425 302.699C355.647 302.635 355.85 302.544 356.031 302.427C356.213 302.304 356.374 302.16 356.515 301.996C356.655 301.826 356.778 301.639 356.884 301.434V297.021C356.673 296.635 356.389 296.318 356.031 296.072C355.674 295.82 355.229 295.694 354.695 295.694C354.238 295.694 353.846 295.788 353.518 295.976C353.195 296.163 352.929 296.418 352.718 296.74C352.513 297.057 352.36 297.426 352.261 297.848C352.161 298.264 352.111 298.703 352.111 299.166V299.351ZM365.805 304.176C365.137 304.176 364.521 304.062 363.959 303.833C363.402 303.604 362.925 303.285 362.526 302.875C362.128 302.465 361.817 301.979 361.595 301.416C361.372 300.854 361.261 300.241 361.261 299.579V299.21C361.261 298.442 361.384 297.757 361.63 297.153C361.876 296.544 362.201 296.031 362.605 295.615C363.016 295.193 363.479 294.871 363.994 294.648C364.516 294.426 365.049 294.314 365.594 294.314C366.279 294.314 366.877 294.435 367.387 294.675C367.902 294.909 368.33 295.237 368.67 295.659C369.01 296.075 369.262 296.567 369.426 297.136C369.596 297.704 369.681 298.319 369.681 298.981V299.711H362.887C362.904 300.145 362.986 300.552 363.133 300.933C363.285 301.313 363.49 301.647 363.748 301.935C364.012 302.216 364.325 302.438 364.688 302.603C365.052 302.767 365.453 302.849 365.893 302.849C366.473 302.849 366.988 302.731 367.439 302.497C367.891 302.263 368.266 301.952 368.564 301.565L369.558 302.339C369.399 302.579 369.2 302.811 368.96 303.033C368.726 303.25 368.453 303.443 368.143 303.613C367.832 303.783 367.48 303.918 367.088 304.018C366.695 304.123 366.268 304.176 365.805 304.176ZM365.594 295.65C365.266 295.65 364.955 295.712 364.662 295.835C364.369 295.952 364.105 296.128 363.871 296.362C363.637 296.591 363.438 296.875 363.273 297.215C363.115 297.549 363.004 297.936 362.939 298.375H368.055V298.252C368.037 297.936 367.976 297.622 367.87 297.312C367.771 297.001 367.621 296.723 367.422 296.477C367.223 296.23 366.971 296.031 366.666 295.879C366.367 295.727 366.01 295.65 365.594 295.65ZM376.141 301.662L376.29 302.251L376.448 301.662L379.111 294.49H380.772L376.896 304H375.657L371.746 294.49H373.416L376.141 301.662ZM383.479 294.49H388.34V302.594H391.442V304H383.479V302.594H386.714V295.905H383.479V294.49ZM386.503 291.994C386.503 291.725 386.582 291.499 386.74 291.317C386.904 291.13 387.15 291.036 387.479 291.036C387.801 291.036 388.044 291.13 388.208 291.317C388.372 291.499 388.454 291.725 388.454 291.994C388.454 292.258 388.372 292.478 388.208 292.653C388.044 292.829 387.801 292.917 387.479 292.917C387.15 292.917 386.904 292.829 386.74 292.653C386.582 292.478 386.503 292.258 386.503 291.994ZM398.087 302.857C398.38 302.857 398.664 302.811 398.939 302.717C399.221 302.623 399.47 302.494 399.687 302.33C399.903 302.16 400.076 301.964 400.205 301.741C400.34 301.513 400.41 301.267 400.416 301.003H401.954C401.948 301.425 401.837 301.829 401.62 302.216C401.409 302.597 401.125 302.934 400.768 303.227C400.41 303.514 400 303.745 399.537 303.921C399.074 304.091 398.591 304.176 398.087 304.176C397.366 304.176 396.736 304.047 396.197 303.789C395.658 303.531 395.207 303.186 394.844 302.752C394.486 302.312 394.217 301.809 394.035 301.24C393.854 300.666 393.763 300.062 393.763 299.43V299.061C393.763 298.434 393.854 297.833 394.035 297.259C394.217 296.685 394.486 296.181 394.844 295.747C395.207 295.308 395.658 294.959 396.197 294.701C396.736 294.443 397.366 294.314 398.087 294.314C398.649 294.314 399.165 294.405 399.634 294.587C400.108 294.763 400.516 295.006 400.855 295.316C401.201 295.621 401.471 295.984 401.664 296.406C401.857 296.828 401.954 297.279 401.954 297.76H400.416C400.41 297.473 400.346 297.203 400.223 296.951C400.105 296.693 399.944 296.468 399.739 296.274C399.534 296.081 399.288 295.929 399.001 295.817C398.72 295.706 398.415 295.65 398.087 295.65C397.583 295.65 397.158 295.753 396.812 295.958C396.473 296.157 396.197 296.421 395.986 296.749C395.775 297.071 395.623 297.435 395.529 297.839C395.441 298.243 395.397 298.65 395.397 299.061V299.43C395.397 299.846 395.441 300.259 395.529 300.669C395.623 301.073 395.772 301.439 395.978 301.768C396.188 302.09 396.464 302.354 396.804 302.559C397.149 302.758 397.577 302.857 398.087 302.857ZM409.047 304.176C408.379 304.176 407.764 304.062 407.201 303.833C406.645 303.604 406.167 303.285 405.769 302.875C405.37 302.465 405.06 301.979 404.837 301.416C404.614 300.854 404.503 300.241 404.503 299.579V299.21C404.503 298.442 404.626 297.757 404.872 297.153C405.118 296.544 405.443 296.031 405.848 295.615C406.258 295.193 406.721 294.871 407.236 294.648C407.758 294.426 408.291 294.314 408.836 294.314C409.521 294.314 410.119 294.435 410.629 294.675C411.145 294.909 411.572 295.237 411.912 295.659C412.252 296.075 412.504 296.567 412.668 297.136C412.838 297.704 412.923 298.319 412.923 298.981V299.711H406.129C406.146 300.145 406.229 300.552 406.375 300.933C406.527 301.313 406.732 301.647 406.99 301.935C407.254 302.216 407.567 302.438 407.931 302.603C408.294 302.767 408.695 302.849 409.135 302.849C409.715 302.849 410.23 302.731 410.682 302.497C411.133 302.263 411.508 301.952 411.807 301.565L412.8 302.339C412.642 302.579 412.442 302.811 412.202 303.033C411.968 303.25 411.695 303.443 411.385 303.613C411.074 303.783 410.723 303.918 410.33 304.018C409.938 304.123 409.51 304.176 409.047 304.176ZM408.836 295.65C408.508 295.65 408.197 295.712 407.904 295.835C407.611 295.952 407.348 296.128 407.113 296.362C406.879 296.591 406.68 296.875 406.516 297.215C406.357 297.549 406.246 297.936 406.182 298.375H411.297V298.252C411.279 297.936 411.218 297.622 411.112 297.312C411.013 297.001 410.863 296.723 410.664 296.477C410.465 296.23 410.213 296.031 409.908 295.879C409.609 295.727 409.252 295.65 408.836 295.65ZM421.976 301.478C421.976 301.284 421.938 301.111 421.861 300.959C421.785 300.801 421.656 300.657 421.475 300.528C421.293 300.399 421.053 300.282 420.754 300.177C420.455 300.065 420.083 299.966 419.638 299.878C419.093 299.767 418.595 299.632 418.144 299.474C417.698 299.315 417.314 299.128 416.992 298.911C416.676 298.688 416.43 298.431 416.254 298.138C416.078 297.839 415.99 297.493 415.99 297.101C415.99 296.714 416.081 296.354 416.263 296.02C416.444 295.68 416.699 295.384 417.027 295.132C417.355 294.88 417.745 294.681 418.196 294.534C418.653 294.388 419.154 294.314 419.699 294.314C420.285 294.314 420.812 294.391 421.281 294.543C421.75 294.695 422.148 294.906 422.477 295.176C422.805 295.445 423.057 295.762 423.232 296.125C423.414 296.482 423.505 296.869 423.505 297.285H421.879C421.879 297.08 421.826 296.881 421.721 296.688C421.615 296.488 421.469 296.312 421.281 296.16C421.094 296.008 420.865 295.885 420.596 295.791C420.332 295.697 420.033 295.65 419.699 295.65C419.354 295.65 419.049 295.688 418.785 295.765C418.527 295.841 418.311 295.943 418.135 296.072C417.965 296.201 417.836 296.351 417.748 296.521C417.66 296.69 417.616 296.866 417.616 297.048C417.616 297.235 417.651 297.402 417.722 297.549C417.792 297.695 417.912 297.827 418.082 297.944C418.258 298.062 418.489 298.167 418.776 298.261C419.069 298.354 419.438 298.445 419.884 298.533C420.47 298.656 420.994 298.8 421.457 298.964C421.92 299.122 422.31 299.315 422.626 299.544C422.942 299.767 423.183 300.027 423.347 300.326C423.517 300.625 423.602 300.971 423.602 301.363C423.602 301.785 423.505 302.169 423.312 302.515C423.124 302.86 422.86 303.156 422.521 303.402C422.181 303.648 421.773 303.839 421.299 303.974C420.824 304.108 420.306 304.176 419.743 304.176C419.099 304.176 418.524 304.091 418.021 303.921C417.517 303.745 417.089 303.517 416.737 303.235C416.392 302.948 416.125 302.617 415.938 302.242C415.756 301.867 415.665 301.478 415.665 301.073H417.291C417.314 301.407 417.402 301.688 417.555 301.917C417.713 302.146 417.906 302.33 418.135 302.471C418.369 302.611 418.627 302.711 418.908 302.77C419.189 302.828 419.468 302.857 419.743 302.857C420.429 302.857 420.971 302.731 421.369 302.479C421.768 302.228 421.97 301.894 421.976 301.478Z" fill="white"/>
<path d="M0 227L1177 227" stroke="#FFC700"/>
<path d="M79 -3L79 820" stroke="#FFC700"/>
</svg>
